<svg xmlns="http://www.w3.org/2000/svg" version="1.1" viewBox="0 0 40 40">
    <path fill-rule="evenodd" clip-rule="evenodd" fill="#C4C4C4" d="M20,40C9,40,0,31,0,20C0,9,9,0,20,0s20,9,20,20C40,31,31,40,20,40z
	 M20,2C10.1,2,2,10.1,2,20s8.1,18,18,18s18-8.1,18-18S29.9,2,20,2z M25.2,18.4c-0.2,0.4-0.5,0.8-0.8,1.1c-0.3,0.3-0.6,0.7-0.9,1
	c-0.3,0.3-0.6,0.6-0.9,0.9c-0.3,0.3-0.6,0.6-0.8,1c-0.3,0.4-0.5,0.7-0.6,1.1c-0.1,0.4-0.2,0.9-0.2,1.4v1.2h-2.5v-1.4
	c0-0.8,0.2-1.6,0.5-2.1c0.3-0.6,0.6-1.1,1-1.6c0.4-0.5,0.8-0.9,1.2-1.3c0.4-0.4,0.8-0.8,1.2-1.2c0.4-0.4,0.7-0.9,0.9-1.4
	c0.2-0.5,0.3-1.1,0.3-1.9c-0.1-1.1-0.4-2-1.1-2.6c-0.6-0.6-1.5-0.9-2.6-0.9c-0.7,0-1.3,0.1-1.9,0.4c-0.5,0.3-1,0.6-1.3,1.1
	c-0.4,0.4-0.6,1-0.8,1.6c-0.2,0.6-0.2,1.3-0.2,1.9h-2.6c0-1,0.1-2,0.4-2.9c0.3-0.9,0.8-1.6,1.3-2.3c0.6-0.6,1.3-1.2,2.1-1.5
	s1.8-0.5,2.8-0.5c0.9,0,1.8,0.1,2.6,0.4c0.8,0.3,1.4,0.7,2,1.2c0.6,0.5,1,1.1,1.3,1.9c0.3,0.7,0.5,1.6,0.5,2.6
	c0,0.6-0.1,1.2-0.2,1.7C25.6,17.5,25.4,18,25.2,18.4z M21.2,31.3h-3.3V28h3.3V31.3z"/>
</svg>