<svg xmlns="http://www.w3.org/2000/svg" version="1.1" viewBox="0 0 40 40">
    <path fill="#C2C2C1" d="M39.2,16.8l-4.8-0.7c0,0-0.1,0-0.1,0c-0.3-1.2-0.8-2.4-1.4-3.4c0,0,0,0,0,0l2.9-3.9
		c0.3-0.4,0.2-0.9-0.1-1.3l-3.1-3.1C32.4,4.1,32.1,4,31.9,4c-0.2,0-0.4,0.1-0.6,0.2l-3.9,2.9c0,0,0,0-0.1,0
		c-1.1-0.6-2.2-1.1-3.4-1.4c0,0,0,0,0,0l-0.8-4.8c-0.1-0.5-0.5-0.8-1-0.8h-4.4c-0.5,0-0.9,0.4-1,0.8l-0.7,4.8c0,0,0,0.1,0,0.1
		c-1.2,0.3-2.3,0.8-3.4,1.4c0,0-0.1,0-0.1-0.1L8.7,4.2C8.5,4.1,8.3,4,8.1,4C7.8,4,7.6,4.1,7.4,4.3L4.3,7.4C4,7.8,3.9,8.3,4.2,8.7
		l2.9,3.9c0,0,0.1,0.1,0.1,0.1l0,0c-0.6,1-1,2.2-1.4,3.3c0,0-0.1,0-0.1,0l-4.9,0.7c-0.5,0.1-0.9,0.5-0.9,1v4.3c0,0.5,0.4,0.9,0.8,1
		l4.9,0.8c0,0,0.1,0,0.1,0c0.3,1.2,0.8,2.3,1.4,3.3c0,0-0.1,0.1-0.1,0.1l-2.9,4c-0.3,0.4-0.3,1,0.1,1.3l3.1,3.1
		C7.6,35.9,7.8,36,8.1,36c0.2,0,0.4-0.1,0.6-0.2l4-2.9c0,0,0.1,0,0.1-0.1c1,0.6,2.1,1,3.3,1.4c0,0,0,0.1,0,0.1l0.7,4.9
		c0.1,0.5,0.5,0.9,1,0.9h4.3c0.5,0,0.9-0.4,1-0.8l0.8-4.9c0,0,0,0,0-0.1c1.2-0.3,2.3-0.8,3.3-1.4c0,0,0,0,0.1,0l4,2.9
		c0.2,0.1,0.4,0.2,0.6,0.2c0.3,0,0.5-0.1,0.7-0.3l3.1-3.1c0.3-0.3,0.4-0.9,0.1-1.3l-2.9-4c0.6-1.1,1.1-2.2,1.4-3.4c0,0,0.1,0,0.1,0
		l4.8-0.8c0.5-0.1,0.8-0.5,0.8-1v-4.4C40,17.3,39.6,16.9,39.2,16.8z M38,21.3l-3.9,0.6l0,0L32.7,22l-0.4,1.3c-0.3,1-0.7,2-1.2,2.9
		l-0.7,1.1l0.8,1.1l2.4,3.3l-1.9,1.9l-3.2-2.4l-1.1-0.9l-1.2,0.7c-0.9,0.5-1.9,0.9-2.9,1.2L22,32.7L21.9,34l-0.6,4h-2.6l-0.6-4
		l0-0.1L18,32.6l-1.4-0.4c-1-0.3-2-0.7-2.8-1.2l-1.3-0.7l-1,0.9l-3.3,2.4l-1.9-1.9l2.4-3.2l0,0l0.9-1.1L9,26.2
		c-0.5-0.9-0.9-1.8-1.2-2.8L7.4,22L6,21.9l0,0l-4-0.6v-2.6l4-0.6l0,0L7.4,18l0.4-1.4c0.3-1,0.7-2,1.2-2.9l0.7-1.3l-1-1L6.3,8.2
		l1.9-1.9l3.2,2.3l0,0l1.1,0.9l1.2-0.7c0.9-0.5,1.9-0.9,2.9-1.2L18,7.3l0.1-1.4l0,0L18.7,2h2.6l0.6,3.9L22,7.3l1.4,0.4
		c1,0.3,2,0.7,3,1.2l1.3,0.7l1-0.9l3.1-2.3l1.9,1.9l-2.3,3.2l-0.9,1l0.7,1.2c0.5,0.9,0.9,1.9,1.2,3l0.4,1.4l1.4,0.1l3.8,0.6V21.3z"/>
    <path fill="#C2C2C1" d="M20,11.8c-4.6,0-8.2,3.7-8.2,8.2c0,4.6,3.7,8.2,8.2,8.2c4.6,0,8.2-3.7,8.2-8.2C28.2,15.4,24.6,11.8,20,11.8
		z M20,26.2c-3.4,0-6.2-2.8-6.2-6.2s2.8-6.2,6.2-6.2s6.2,2.8,6.2,6.2S23.4,26.2,20,26.2z"/>
</svg>